<?xml version="1.0" encoding="UTF-8"?>
<svg id="Layer_2" data-name="Layer 2" xmlns="http://www.w3.org/2000/svg" viewBox="0 0 184.34 155.19">
  <defs>
    <style>
      .cls-1 {
        fill: #fff;
      }

      .cls-2 {
        isolation: isolate;
      }

      .cls-3 {
        fill: #e5eaea;
      }
    </style>
  </defs>
  <g id="Layer_1-2" data-name="Layer 1">
    <g class="cls-2">
      <path class="cls-3" d="M140.55,19.45l17.62,10.24c-4.52-2.63-10.78-2.26-17.69,1.73-1.32,.76-2.61,1.63-3.87,2.58l-17.62-10.24c1.26-.95,2.55-1.82,3.87-2.58,6.91-3.99,13.17-4.36,17.69-1.73Z"/>
      <path class="cls-3" d="M110.03,2.18c-5.97-3.47-14.42-2.92-23.76,2.48-16.75,9.67-30.51,31.49-32.35,50.43-2.85-.55-6.27,.14-9.95,2.26-7.55,4.36-13.99,13.48-16.56,22.6-1.32,.5-2.66,1.13-4.04,1.93C10.42,89.36-.04,107.48,0,122.36c.02,7.41,2.64,12.62,6.87,15.07l17.62,10.24c-4.22-2.46-6.84-7.66-6.87-15.07-.04-14.88,10.42-33,23.37-40.48,1.37-.79,2.72-1.43,4.04-1.93,2.57-9.12,9-18.24,16.56-22.6,3.68-2.12,7.1-2.82,9.95-2.26,1.84-18.94,15.6-40.76,32.35-50.43,9.35-5.4,17.79-5.95,23.76-2.48L110.03,2.18Z"/>
      <path class="cls-1" d="M103.89,14.9c18.04-10.42,32.72-2.8,32.77,17.03,0,.68-.02,1.38-.05,2.07,1.26-.95,2.55-1.82,3.87-2.58,13.73-7.93,24.9-1.56,24.94,14.22,.04,14.58-9.43,32.09-21.71,40.93l-102.56,59.56c-12.95,7.35-23.49,1.35-23.53-13.53s10.42-33,23.37-40.48c1.37-.79,2.72-1.43,4.04-1.93,2.57-9.12,9-18.24,16.56-22.6,3.68-2.12,7.1-2.82,9.95-2.26,1.84-18.94,15.6-40.76,32.35-50.43Z"/>
    </g>
    <g class="cls-2">
      <path class="cls-3" d="M170.58,89.59l9.75,5.17c-2.5-1.33-5.96-1.14-9.79,.88-.73,.38-1.44,.82-2.14,1.3l-9.75-5.17c.7-.48,1.41-.92,2.14-1.3,3.82-2.02,7.29-2.2,9.79-.88Z"/>
      <path class="cls-3" d="M153.69,80.86c-3.31-1.75-7.98-1.47-13.15,1.25-9.27,4.89-16.88,15.91-17.9,25.48-1.58-.28-3.47,.07-5.51,1.14-4.18,2.2-7.74,6.81-9.16,11.42-.73,.25-1.47,.57-2.23,.97-7.17,3.78-12.96,12.94-12.93,20.46,.01,3.74,1.46,6.38,3.8,7.62l9.75,5.17c-2.34-1.24-3.79-3.87-3.8-7.62-.02-7.52,5.76-16.68,12.93-20.46,.76-.4,1.51-.72,2.23-.97,1.42-4.61,4.98-9.22,9.16-11.42,2.03-1.07,3.93-1.42,5.51-1.14,1.02-9.57,8.63-20.6,17.9-25.48,5.17-2.73,9.84-3.01,13.15-1.25l-9.75-5.17Z"/>
      <path class="cls-1" d="M150.29,87.29c9.98-5.26,18.1-1.41,18.13,8.6,0,.34-.01,.7-.03,1.05,.7-.48,1.41-.92,2.14-1.3,7.6-4.01,13.78-.79,13.8,7.19,.02,7.37-5.22,16.22-12.01,20.68l-56.74,30.1c-7.17,3.72-12.99,.68-13.02-6.84s5.76-16.68,12.93-20.46c.76-.4,1.51-.72,2.23-.97,1.42-4.61,4.98-9.22,9.16-11.42,2.03-1.07,3.93-1.42,5.51-1.14,1.02-9.57,8.63-20.6,17.9-25.48Z"/>
    </g>
  </g>
</svg>