<?xml version="1.0" encoding="UTF-8"?>
<svg id="Layer_2" data-name="Layer 2" xmlns="http://www.w3.org/2000/svg" viewBox="0 0 137.83 112.89">
  <defs>
    <style>
      .cls-1 {
        fill: #fff;
      }

      .cls-2 {
        isolation: isolate;
      }

      .cls-3 {
        fill: #c1d8e0;
      }

      .cls-4 {
        fill: #ebf9ff;
      }
    </style>
  </defs>
  <g id="Layer_1-2" data-name="Layer 1">
    <g class="cls-2">
      <path class="cls-1" d="M114.27,9.88l17.62,10.24c3.23,1.88,5.21,5.72,5.22,11.18,.03,11.55-8.75,26.04-19.58,32.29l-17.62-10.24c10.83-6.25,19.61-20.74,19.58-32.29-.02-5.46-2-9.3-5.22-11.18Z"/>
      <path class="cls-1" d="M99.8,11.45c5.71-3.3,10.87-3.66,14.47-1.56l17.62,10.24c-3.6-2.09-8.76-1.74-14.47,1.56-2.7,1.56-5.32,3.65-7.78,6.21l-17.62-10.24c2.46-2.56,5.08-4.65,7.78-6.21Z"/>
      <polygon class="cls-1" points="109.23 28.33 91.61 18.09 92.02 17.66 109.64 27.9 109.23 28.33"/>
      <path class="cls-3" d="M109.79,26.86l-17.62-10.24c2.42-2.45,4.99-4.47,7.63-5.99l17.62,10.24c-2.64,1.52-5.2,3.54-7.63,5.99Z"/>
      <polygon class="cls-1" points="109.23 28.33 91.61 18.09 91.54 17.61 109.16 27.85 109.23 28.33"/>
      <path class="cls-1" d="M82.93,3.01l17.62,10.24c4.48,2.6,7.61,7.58,8.61,14.6l-17.62-10.24c-1-7.03-4.13-12-8.61-14.6Z"/>
      <polygon class="cls-1" points="37.64 109.66 20.02 99.42 99.92 53.35 117.54 63.59 37.64 109.66"/>
      <polygon class="cls-1" points="37.31 109.81 19.69 99.57 20.02 99.42 37.64 109.66 37.31 109.81"/>
      <path class="cls-1" d="M66.63,2.45c6.26-2.27,11.93-1.99,16.31,.56l17.62,10.24c-4.38-2.54-10.05-2.83-16.31-.55-5.87-3.41-11.74-6.83-17.62-10.24Z"/>
      <path class="cls-1" d="M23.75,110.57l-17.62-10.24c3.4,1.97,8.15,1.86,13.57-.75l17.62,10.24c-5.42,2.61-10.17,2.73-13.57,.75Z"/>
      <path class="cls-1" d="M61.07,5.07c1.89-1.09,3.75-1.96,5.55-2.62,5.87,3.42,11.74,6.83,17.62,10.24-1.81,.66-3.66,1.53-5.55,2.62-5.29-3.07-12.33-7.17-17.62-10.24Z"/>
      <polygon class="cls-1" points="48.53 61.86 30.91 51.62 30.99 51.07 48.61 61.31 48.53 61.86"/>
      <polygon class="cls-1" points="48.12 61.89 30.5 51.65 30.91 51.62 48.53 61.86 48.12 61.89"/>
      <path class="cls-1" d="M6.13,100.33c-2.52-1.47-4.3-4.09-5.04-7.7,5.87,3.41,11.75,6.83,17.62,10.24,.74,3.61,2.51,6.24,5.04,7.7-5.29-3.07-12.33-7.17-17.62-10.24Z"/>
      <path class="cls-4" d="M48.61,61.31l-17.62-10.24c2.73-18.17,15.38-37.52,30.08-46l17.62,10.24c-14.7,8.49-27.35,27.83-30.08,46Z"/>
      <path class="cls-1" d="M21.48,54.7c3.16-1.82,6.2-2.85,9.02-3.05l17.62,10.24c-2.83,.2-5.86,1.22-9.02,3.05-11.49,6.63-20.81,21.87-20.77,33.96,0,1.43,.14,2.75,.38,3.96-5.87-3.41-11.75-6.83-17.62-10.24-.25-1.21-.38-2.54-.38-3.96-.03-12.09,9.28-27.33,20.77-33.96Z"/>
      <path class="cls-1" d="M78.69,15.31c15.11-8.73,28.21-3.33,30.47,12.54l.07,.48,.41-.43c2.46-2.56,5.08-4.65,7.78-6.21,10.83-6.25,19.67-1.94,19.7,9.61,.03,11.55-8.75,26.04-19.58,32.29L37.64,109.72l-.33,.09c-10.79,5.2-18.95,.51-18.99-10.91-.03-12.09,9.28-27.33,20.77-33.96,3.16-1.82,6.2-2.85,9.02-3.05l.41-.03,.08-.55c2.73-18.17,15.38-37.52,30.08-46Z"/>
      <path class="cls-1" d="M117.42,20.87c11.22-6.48,20.38-1.98,20.41,10.02,.03,12-9.07,27.04-20.29,33.52L36.93,110.94c-11,4.99-19.28,.09-19.31-11.64-.04-12.55,9.6-28.33,21.48-35.19,3.11-1.8,6.1-2.84,8.91-3.11,2.96-18.43,15.79-37.92,30.69-46.52,15.31-8.84,28.6-3.51,31.1,12.37,2.42-2.45,4.99-4.47,7.63-5.99Zm.12,42.72c10.83-6.25,19.61-20.74,19.58-32.29-.03-11.55-8.87-15.87-19.7-9.61-2.7,1.56-5.32,3.65-7.78,6.21l-.41,.43-.07-.48c-2.26-15.87-15.36-21.27-30.47-12.54-14.7,8.49-27.35,27.83-30.08,46l-.08,.55-.41,.03c-2.83,.2-5.86,1.22-9.02,3.05-11.49,6.63-20.81,21.87-20.77,33.96,.03,11.42,8.19,16.11,18.99,10.91l.33-.16L117.54,63.59"/>
      <g>
        <path class="cls-3" d="M114.78,9.02c-3.73-2.17-9.07-1.8-14.98,1.61l17.62,10.24c5.91-3.41,11.25-3.78,14.98-1.61l-17.62-10.24Z"/>
        <path class="cls-3" d="M61.07,4.25c-14.9,8.6-27.73,28.09-30.69,46.52-2.81,.28-5.8,1.32-8.91,3.11C9.6,60.74-.04,76.52,0,89.07c.02,5.93,2.14,10.11,5.66,12.15l17.62,10.24c-3.52-2.04-5.64-6.23-5.66-12.15-.04-12.55,9.6-28.33,21.48-35.19,3.11-1.8,6.1-2.84,8.91-3.11,2.96-18.43,15.79-37.92,30.69-46.52,8.62-4.97,16.59-5.46,22.37-2.11L83.44,2.15c-5.77-3.36-13.75-2.87-22.37,2.11Z"/>
      </g>
    </g>
  </g>
</svg>